<svg version="1.1" id="Layer_1" xmlns="http://www.w3.org/2000/svg" xmlns:xlink="http://www.w3.org/1999/xlink" x="0px" y="0px"
	 width="100%" viewBox="0 0 500 500" enable-background="new 0 0 500 500" xml:space="preserve">
<path fill="#000000" opacity="1.000000" stroke="none" 
	d="
M278.000000,501.000000 
	C185.333359,501.000000 93.166710,501.000000 1.000049,501.000000 
	C1.000033,334.333405 1.000033,167.666794 1.000016,1.000139 
	C167.666565,1.000093 334.333130,1.000093 500.999756,1.000046 
	C500.999847,167.666519 500.999847,334.333038 500.999939,500.999786 
	C426.833344,501.000000 352.666656,501.000000 278.000000,501.000000 
M278.744171,247.500076 
	C277.882690,247.978210 277.021179,248.456360 276.001282,248.894348 
	C276.001282,248.894348 275.960571,249.052597 275.114655,249.262222 
	C272.052704,248.615326 268.990753,247.968430 266.007294,247.144958 
	C266.007294,247.144958 265.830597,247.066681 265.617249,246.308823 
	C265.084808,244.316238 264.129150,242.331390 264.092560,240.329742 
	C263.926605,231.251556 264.019897,222.168640 264.019897,212.825928 
	C260.583313,212.825928 257.709076,212.825928 254.627197,212.825928 
	C254.627197,222.141586 254.304749,231.092545 254.780777,240.000854 
	C254.980225,243.733307 256.872437,247.375290 258.013000,250.998489 
	C258.013000,250.998489 257.950531,250.995926 258.130890,251.654129 
	C261.075684,253.402115 264.020508,255.150116 267.519165,257.355103 
	C270.692169,257.177643 273.865143,257.000183 277.696106,256.944489 
	C280.849091,254.635223 284.002075,252.325974 287.049164,250.024872 
	C287.049164,250.024872 287.057648,250.130768 287.734863,249.862152 
	C288.446075,248.447815 289.700958,247.063248 289.780243,245.614334 
	C290.294464,236.217026 290.424652,226.798477 290.955627,217.402420 
	C291.179565,213.439377 289.784088,211.834808 285.865021,212.375488 
	C284.304291,212.590805 282.726257,212.680618 281.610596,212.785034 
	C281.610596,222.148361 281.610596,230.903488 281.351257,240.412613 
	C281.310181,240.941742 281.269104,241.470856 280.966858,242.653351 
	C280.368866,244.118729 279.770874,245.584091 278.744171,247.500076 
M432.127258,216.852859 
	C432.127258,216.852859 432.304901,216.814163 431.835144,216.301041 
	C429.221313,215.286453 426.607452,214.271866 423.369263,213.095474 
	C422.940186,213.083023 422.511139,213.070572 421.471527,212.603287 
	C416.612274,212.401840 411.754456,212.128937 406.893127,212.030609 
	C404.636108,211.984940 402.007538,211.748367 402.031372,215.270615 
	C402.120880,228.495560 402.216034,241.720444 402.604889,255.608521 
	C408.019287,256.057526 413.489288,257.226593 418.837067,256.813446 
	C432.095856,255.789093 438.951111,249.904587 440.908905,238.978790 
	C440.908905,238.978790 440.951416,238.497650 441.122986,237.826996 
	C441.324860,231.078522 440.896851,224.529953 435.301483,219.746735 
	C435.301483,219.746735 435.443726,219.766693 435.130157,219.174484 
	C434.119568,218.340775 433.108978,217.507065 432.127258,216.852859 
M103.234840,292.867310 
	C102.603615,293.909088 101.972389,294.950867 101.138550,296.809845 
	C101.137398,297.306671 101.126556,297.803711 101.136566,298.300323 
	C101.265236,304.684174 104.901291,308.201508 111.007561,307.852509 
	C116.650047,307.530029 120.660706,303.304504 119.305428,297.494080 
	C118.569244,294.337860 115.116432,291.815338 113.008430,288.078979 
	C113.023643,283.386749 113.038857,278.694489 113.608208,273.603607 
	C115.801193,269.456299 116.566574,263.971436 122.052177,262.646515 
	C129.512695,260.844635 131.844086,255.107864 133.003693,248.766663 
	C133.537186,245.849289 134.319153,244.166794 136.984482,242.643387 
	C142.318558,239.594635 142.333466,230.073959 137.319183,226.953278 
	C133.496002,224.573883 127.763191,225.381485 125.006058,228.687836 
	C121.756638,232.584579 121.482315,237.363754 125.319603,240.774399 
	C128.225449,243.357162 129.004120,245.620499 127.107979,248.783554 
	C125.561111,251.363953 124.269478,255.348251 122.037262,256.039978 
	C114.346260,258.423309 111.216309,264.098175 108.341537,271.058167 
	C107.217430,271.062225 106.093315,271.066284 104.976089,271.008972 
	C104.976089,271.008972 104.919762,271.034363 104.590179,270.300964 
	C102.405861,257.635376 100.138748,244.983200 98.080811,232.297104 
	C97.330734,227.673340 93.989487,222.860962 90.347565,222.309708 
	C84.858711,221.478851 82.801170,225.388062 81.031898,229.448990 
	C80.385757,230.932037 80.421593,232.751877 79.636154,234.126587 
	C77.824265,237.297852 76.257935,240.981537 73.550613,243.167740 
	C70.660080,245.501877 68.541763,241.846786 66.069321,240.384872 
	C62.935375,238.531830 59.186493,237.915985 56.018456,241.041916 
	C52.976536,244.043411 52.967686,247.689606 54.519459,251.141846 
	C56.179749,254.835510 60.027508,256.121063 63.358330,254.746201 
	C69.166527,252.348755 74.842522,249.344391 79.983154,245.749573 
	C82.211281,244.191437 83.132889,240.605698 84.349892,237.811127 
	C85.329720,235.561203 85.722389,233.058823 86.659531,230.785522 
	C87.037727,229.868073 88.356056,228.530273 88.921936,228.672760 
	C89.974747,228.937897 91.273766,229.987732 91.607849,230.996506 
	C92.433716,233.490311 92.735657,236.153717 93.315216,238.733917 
	C94.167542,242.528503 95.078232,246.309982 95.967636,250.478149 
	C95.967636,250.478149 95.945595,250.858643 95.459015,251.074081 
	C95.621384,251.430038 95.783752,251.786011 95.983459,252.766418 
	C96.037926,253.178482 96.092392,253.590530 96.019127,254.653107 
	C96.363968,255.433456 96.708809,256.213806 96.769142,257.649292 
	C96.909584,260.088989 96.851753,262.559601 97.226013,264.962891 
	C98.588303,273.710602 101.335617,277.220062 107.387321,278.899200 
	C107.690422,283.913361 109.070084,289.220459 103.771889,292.685486 
	C103.771889,292.685486 103.780281,292.552643 103.234840,292.867310 
M315.463745,225.201462 
	C315.027924,225.812088 314.592102,226.422714 313.632935,227.461029 
	C309.539642,232.885696 305.723602,238.552612 301.263489,243.656738 
	C297.827545,247.588821 297.181244,251.690659 298.302307,256.984406 
	C306.683075,256.984406 315.119690,256.994049 323.556274,256.981506 
	C331.140320,256.970276 331.846588,256.094910 330.324799,247.941254 
	C323.771271,247.941254 317.090912,247.941254 309.476074,247.941254 
	C313.618164,242.513840 317.427948,238.135986 320.529999,233.303787 
	C324.524841,227.080872 332.435150,222.504562 329.063019,212.645309 
	C319.837341,212.560471 310.610840,212.403198 301.387451,212.511856 
	C300.540344,212.521851 299.713226,214.230164 298.638611,215.925079 
	C298.731720,217.258316 298.824829,218.591568 298.822754,220.477402 
	C304.922516,220.792618 311.022278,221.107819 317.467865,221.440903 
	C316.852417,222.941620 316.428040,223.976440 316.002441,225.002441 
	C316.002441,225.002441 316.011597,225.004410 315.463745,225.201462 
M195.037659,247.856598 
	C195.037659,247.856598 195.189163,247.981033 195.275040,248.714249 
	C198.952988,257.930511 198.952988,257.930511 208.171127,256.278229 
	C206.685486,252.759781 205.269409,249.406082 203.755814,245.376724 
	C203.634888,244.940567 203.513947,244.504395 203.393723,243.361252 
	C201.429642,238.621231 199.465561,233.881195 197.646011,229.105362 
	C197.646011,229.105362 197.612488,228.960281 197.801987,228.342453 
	C196.494324,224.834579 195.291809,221.282318 193.837387,217.836365 
	C193.035370,215.936127 192.248108,213.429108 190.692581,212.562103 
	C186.343155,210.137894 180.261047,213.041534 178.462372,217.857071 
	C178.117157,218.781265 177.746368,219.695908 177.368988,220.679626 
	C177.368988,220.679626 177.433243,220.699371 177.204193,221.307114 
	C176.596481,222.694412 175.988754,224.081711 175.302368,225.667175 
	C175.302368,225.667175 175.499222,225.749039 175.284378,226.416992 
	C171.630997,236.433792 167.977615,246.450607 164.291641,256.556793 
	C173.652115,257.820221 173.621597,257.808411 176.801392,249.590088 
	C177.176071,248.621735 178.108917,247.869339 179.593140,247.104095 
	C180.133957,247.065201 180.674774,247.026306 181.311768,247.152710 
	C181.311768,247.152710 181.594421,247.168823 181.594421,247.168823 
	C181.594421,247.168823 181.784546,246.987061 182.593750,247.092575 
	C183.136093,247.063766 183.678436,247.034943 184.311401,247.176239 
	C184.311401,247.176239 184.595184,247.194550 184.595184,247.194550 
	C184.595184,247.194550 184.780212,247.005569 185.707764,247.101120 
	C188.188965,247.057022 190.670181,247.012924 193.679504,247.078430 
	C194.143646,247.273483 194.607773,247.468521 195.037659,247.856598 
M384.493225,223.675934 
	C384.557739,224.103836 384.622223,224.531738 384.442963,225.873383 
	C384.442963,236.110352 384.442963,246.347336 384.442963,256.796814 
	C387.059723,256.796814 389.016052,256.796814 391.573639,256.716125 
	C391.735535,256.594940 391.897400,256.473785 392.771118,256.235870 
	C393.114227,254.720276 393.744537,253.206589 393.754578,251.688797 
	C393.829132,240.408386 393.460602,229.114212 393.915283,217.851990 
	C394.120850,212.759811 391.820007,212.090469 387.826843,212.048996 
	C383.391022,212.002899 384.387268,215.122055 384.352295,217.610352 
	C384.326843,219.420654 384.561371,221.234634 384.493225,223.675934 
M109.594093,243.078690 
	C112.796890,243.468079 113.070045,241.439651 113.046494,239.019638 
	C112.962204,230.358765 112.933357,221.697357 113.156380,212.398865 
	C114.412605,211.323318 115.739388,210.319092 116.911896,209.158951 
	C120.499916,205.608810 120.627243,199.730774 117.257553,196.227936 
	C113.959747,192.799820 107.951164,192.652878 104.162430,195.907669 
	C100.407944,199.133041 99.378464,204.933289 103.369644,208.148956 
	C108.180222,212.024841 107.621460,216.611954 107.640892,221.469833 
	C107.663467,227.114838 107.550285,232.762665 107.708389,238.403305 
	C107.749275,239.862106 108.584518,241.298630 109.594093,243.078690 
M367.217377,252.728714 
	C368.016418,253.959198 368.815460,255.189667 369.563080,256.340942 
	C372.391327,256.340942 375.164520,256.340942 378.952271,256.340942 
	C375.780823,248.275711 372.793427,240.678574 369.742279,232.314148 
	C367.574310,227.017944 364.916260,221.855118 363.424683,216.374817 
	C362.549622,213.159698 361.079773,212.414749 358.365173,212.441223 
	C355.396454,212.470169 352.103180,211.227570 350.554749,215.475861 
	C347.627838,223.506378 344.366791,231.414444 341.339478,239.409317 
	C339.266602,244.883667 337.354340,250.418839 335.343262,256.001892 
	C343.642944,257.650208 343.642944,257.650208 348.782410,247.407455 
	C354.579071,247.407455 360.344635,247.407455 366.250732,247.407455 
	C366.568451,249.108536 366.838867,250.556412 367.217377,252.728714 
M216.042053,256.944916 
	C221.197113,256.953979 226.386841,257.351440 231.500397,256.895264 
	C244.073502,255.773636 247.785995,253.339523 246.917374,241.170349 
	C246.726807,238.500580 244.729874,235.959747 243.410019,233.014053 
	C249.028671,224.669556 247.178802,215.744537 237.653717,213.632202 
	C230.492340,212.044067 222.676086,213.408859 214.271988,213.365295 
	C214.157318,227.429947 214.032288,241.494568 213.978867,255.559464 
	C213.977280,255.973785 214.729553,256.390991 216.042053,256.944916 
M179.760117,270.782806 
	C177.590057,271.398560 174.027069,271.423645 173.475052,272.725464 
	C169.777496,281.445709 166.720963,290.437744 163.391922,299.517700 
	C167.642654,300.350250 170.742752,300.642395 172.559464,295.792267 
	C173.111084,294.319672 177.142960,293.680054 179.624176,293.560791 
	C181.375427,293.476593 184.510666,294.614990 184.762817,295.723022 
	C185.811829,300.332581 188.732864,300.362549 192.262146,299.809509 
	C192.340851,299.682983 192.535202,299.505341 192.501129,299.406097 
	C189.366837,290.273682 186.254288,281.133118 182.980194,272.050812 
	C182.750824,271.414520 181.317413,271.212250 179.760117,270.782806 
M213.068115,273.662201 
	C211.282272,278.876068 209.496414,284.089935 207.710571,289.303802 
	C204.868515,284.708649 202.907455,280.235504 201.585800,275.580780 
	C200.204208,270.714935 197.216324,270.177216 192.403030,271.299713 
	C196.099899,281.010193 199.658356,290.357117 203.145248,299.516083 
	C207.635941,300.525299 211.156586,300.679871 212.815384,295.449829 
	C215.374863,287.380066 218.387360,279.453979 221.207703,271.466949 
	C220.891678,271.017761 220.575638,270.568542 220.259613,270.119354 
	C217.973022,271.093353 215.686447,272.067322 213.068115,273.662201 
z"/>
<path fill="#35B4AC" opacity="1.000000" stroke="none" 
	d="
M215.151367,213.459106 
	C222.676086,213.408859 230.492340,212.044067 237.653717,213.632202 
	C247.178802,215.744537 249.028671,224.669556 243.410019,233.014053 
	C244.729874,235.959747 246.726807,238.500580 246.917374,241.170349 
	C247.785995,253.339523 244.073502,255.773636 231.500397,256.895264 
	C226.386841,257.351440 221.197113,256.953979 215.559402,256.419983 
	C215.101624,241.749710 215.126495,227.604416 215.151367,213.459106 
M236.145599,239.808350 
	C231.870544,239.308060 227.595474,238.807770 223.390076,238.315628 
	C223.390076,242.401520 223.390076,246.110794 223.390076,249.955139 
	C226.402222,249.955139 229.085968,250.265533 231.671677,249.893845 
	C238.078094,248.972961 239.893021,245.383087 236.145599,239.808350 
M237.648575,224.645172 
	C233.923187,218.013428 227.994400,222.771469 222.231918,220.562653 
	C223.075821,224.579224 222.766525,228.087143 224.354294,229.587646 
	C227.310425,232.381302 235.470474,229.401611 237.648575,224.645172 
z"/>
<path fill="#3AAFA8" opacity="1.000000" stroke="none" 
	d="
M96.146851,254.002594 
	C96.092392,253.590530 96.037926,253.178482 95.972107,252.133347 
	C95.955704,251.286392 95.950653,251.072525 95.945595,250.858643 
	C95.945595,250.858643 95.967636,250.478149 95.975220,249.937653 
	C96.191643,248.367996 96.400475,247.338821 96.775574,245.490234 
	C97.540123,246.748505 98.021606,247.220078 98.127983,247.764893 
	C99.401230,254.285797 100.890900,260.783722 101.709747,267.364075 
	C102.014038,269.809448 102.365517,271.079315 104.919762,271.034363 
	C104.919762,271.034363 104.976089,271.008972 105.112915,271.295746 
	C106.479744,271.344025 107.709740,271.105530 108.939743,270.867035 
	C111.216309,264.098175 114.346260,258.423309 122.037262,256.039978 
	C124.269478,255.348251 125.561111,251.363953 127.107979,248.783554 
	C129.004120,245.620499 128.225449,243.357162 125.319603,240.774399 
	C121.482315,237.363754 121.756638,232.584579 125.006058,228.687836 
	C127.763191,225.381485 133.496002,224.573883 137.319183,226.953278 
	C142.333466,230.073959 142.318558,239.594635 136.984482,242.643387 
	C134.319153,244.166794 133.537186,245.849289 133.003693,248.766663 
	C131.844086,255.107864 129.512695,260.844635 122.052177,262.646515 
	C116.566574,263.971436 115.801193,269.456299 113.063591,274.078430 
	C110.647369,279.422211 109.590813,284.270325 112.888977,289.006989 
	C115.116432,291.815338 118.569244,294.337860 119.305428,297.494080 
	C120.660706,303.304504 116.650047,307.530029 111.007561,307.852509 
	C104.901291,308.201508 101.265236,304.684174 101.136566,298.300323 
	C101.126556,297.803711 101.137398,297.306671 101.509094,296.252625 
	C102.513184,294.647827 103.146736,293.600220 103.780281,292.552643 
	C103.780281,292.552643 103.771889,292.685486 104.074097,292.657471 
	C109.533455,289.770142 110.783287,283.218597 107.166840,278.001617 
	C101.335617,277.220062 98.588303,273.710602 97.226013,264.962891 
	C96.851753,262.559601 96.909584,260.088989 97.043594,257.087524 
	C96.927650,255.684723 96.537254,254.843658 96.146851,254.002594 
M134.246887,236.529419 
	C135.821350,234.103745 134.712769,232.634033 132.297165,232.487320 
	C131.377945,232.431488 130.355667,234.072662 129.380356,234.940430 
	C130.841782,235.645065 132.303207,236.349701 134.246887,236.529419 
z"/>
<path fill="#36B0A8" opacity="1.000000" stroke="none" 
	d="
M367.109314,252.004272 
	C366.838867,250.556412 366.568451,249.108536 366.250732,247.407455 
	C360.344635,247.407455 354.579071,247.407455 348.782410,247.407455 
	C343.642944,257.650208 343.642944,257.650208 335.343262,256.001892 
	C337.354340,250.418839 339.266602,244.883667 341.339478,239.409317 
	C344.366791,231.414444 347.627838,223.506378 350.554749,215.475861 
	C352.103180,211.227570 355.396454,212.470169 358.365173,212.441223 
	C361.079773,212.414749 362.549622,213.159698 363.424683,216.374817 
	C364.916260,221.855118 367.574310,227.017944 369.678589,232.984741 
	C370.963440,237.849884 372.438477,242.009445 373.613159,246.252167 
	C374.317902,248.797409 374.553589,251.472504 375.000092,254.089249 
	C372.369812,253.394257 369.739563,252.699265 367.109314,252.004272 
M352.890961,233.580811 
	C352.526520,235.240555 352.162048,236.900314 351.733398,238.852478 
	C355.796082,238.852478 359.172394,238.852478 362.943848,238.852478 
	C361.223297,234.005280 359.655029,229.534286 358.036438,225.081543 
	C357.779205,224.373825 357.295685,223.748337 356.666260,222.646149 
	C355.378540,226.417496 354.287262,229.613556 352.890961,233.580811 
z"/>
<path fill="#37B2AA" opacity="1.000000" stroke="none" 
	d="
M298.917908,219.924805 
	C298.824829,218.591568 298.731720,217.258316 299.125916,215.330887 
	C303.049805,214.494766 306.483398,214.192078 309.923553,214.023956 
	C316.499451,213.702576 323.079102,213.457809 329.657196,213.181259 
	C332.435150,222.504562 324.524841,227.080872 320.529999,233.303787 
	C317.427948,238.135986 313.618164,242.513840 309.476074,247.941254 
	C317.090912,247.941254 323.771271,247.941254 330.324799,247.941254 
	C331.846588,256.094910 331.140320,256.970276 323.556274,256.981506 
	C315.119690,256.994049 306.683075,256.984406 298.302307,256.984406 
	C297.181244,251.690659 297.827545,247.588821 301.263489,243.656738 
	C305.723602,238.552612 309.539642,232.885696 314.148956,227.117523 
	C315.113861,226.184158 315.562744,225.594284 316.011597,225.004410 
	C316.011597,225.004410 316.002441,225.002441 316.287842,224.889587 
	C317.393158,223.914093 318.213043,223.051453 319.032928,222.188828 
	C318.894226,221.682632 318.755524,221.176453 318.616791,220.670273 
	C312.050507,220.421783 305.484192,220.173294 298.917908,219.924805 
z"/>
<path fill="#35B4AC" opacity="1.000000" stroke="none" 
	d="
M422.082062,213.058121 
	C422.511139,213.070572 422.940186,213.083023 423.817505,213.491425 
	C426.945435,214.862976 429.625183,215.838577 432.304901,216.814178 
	C432.304901,216.814163 432.127258,216.852859 432.253021,217.073318 
	C433.400421,218.118088 434.422089,218.942398 435.443726,219.766693 
	C435.443726,219.766693 435.301483,219.746735 435.339478,220.052383 
	C437.046967,226.462494 442.138123,231.515533 440.951416,238.497650 
	C440.951416,238.497650 440.908905,238.978790 440.593903,239.384689 
	C433.837769,256.247742 416.737244,258.297272 403.141510,253.455505 
	C403.103760,242.042923 403.150970,231.090302 403.055237,220.138947 
	C403.017181,215.787582 404.742432,213.813217 409.291748,213.889984 
	C413.549316,213.961807 417.818176,213.362228 422.082062,213.058121 
M424.471558,221.820999 
	C423.939178,221.573914 423.406799,221.326843 422.958160,221.044678 
	C422.958160,221.044678 422.992889,221.128586 422.311127,220.721237 
	C419.211639,220.775925 416.112152,220.830612 412.608063,221.038315 
	C412.608063,221.038315 412.175537,221.046509 411.489838,221.414062 
	C410.993347,223.075256 410.119843,224.724960 410.068756,226.399734 
	C409.892487,232.182922 409.944244,237.975601 410.019989,243.763229 
	C410.103027,250.107681 413.013092,251.623901 419.645508,248.318954 
	C420.099426,248.318054 420.553314,248.317154 421.504791,248.524963 
	C422.301178,248.322601 423.097565,248.120239 424.296387,247.739670 
	C424.296387,247.739670 424.736298,247.753098 425.125549,247.455765 
	C425.377655,247.244705 425.608734,247.012756 426.039032,246.302795 
	C426.463104,246.197296 426.887146,246.091782 427.836884,245.568069 
	C428.220825,245.334229 428.604797,245.100372 428.579529,245.021133 
	C428.579529,245.021133 428.423706,244.612381 429.058258,244.408417 
	C429.724304,243.387665 430.390350,242.366928 431.173523,240.488174 
	C433.032623,233.920898 432.089722,228.033417 426.480682,222.786270 
	C425.905243,222.574631 425.329834,222.362991 424.866333,222.133774 
	C424.866333,222.133774 424.882660,222.245865 424.471558,221.820999 
z"/>
<path fill="#37B2AA" opacity="1.000000" stroke="none" 
	d="
M193.151382,246.968826 
	C190.670181,247.012924 188.188965,247.057022 185.105362,247.026428 
	C184.502960,246.951736 184.220779,247.006134 184.220779,247.006134 
	C183.678436,247.034943 183.136093,247.063766 182.048126,247.012817 
	C181.502518,246.933060 181.215591,246.987411 181.215591,246.987411 
	C180.674774,247.026306 180.133957,247.065201 178.852371,247.069336 
	C176.764297,249.163727 175.744690,251.641510 173.966766,253.312469 
	C172.525665,254.666855 170.173096,255.051422 168.224792,255.866150 
	C167.998917,254.230621 167.191925,252.406219 167.651184,250.993423 
	C169.333298,245.818848 171.612701,240.839264 173.316833,235.670731 
	C174.371674,232.471436 174.793320,229.063385 175.499222,225.749039 
	C175.499222,225.749039 175.302368,225.667175 175.687057,225.454376 
	C176.525589,223.727524 176.979416,222.213440 177.433243,220.699371 
	C177.433243,220.699371 177.368988,220.679626 177.692856,220.478119 
	C178.518341,219.638290 179.273209,219.072266 179.479507,218.349625 
	C180.615189,214.371445 183.472504,213.711914 187.116974,213.799149 
	C190.894180,213.889587 191.971420,216.247971 193.064819,219.240845 
	C194.287552,222.587753 196.072327,225.729340 197.612488,228.960281 
	C197.612488,228.960281 197.646011,229.105362 197.545181,229.549652 
	C199.427246,234.685379 201.410141,239.376801 203.393005,244.068222 
	C203.513947,244.504395 203.634888,244.940567 203.727280,246.009781 
	C203.955063,247.932220 204.169540,249.231720 204.477600,250.508621 
	C204.930847,252.387329 207.216492,255.034134 203.773529,255.611740 
	C202.084564,255.895096 199.758774,253.790451 198.091980,252.340378 
	C196.821655,251.235214 196.135300,249.458817 195.189163,247.981033 
	C195.189163,247.981033 195.037659,247.856598 195.026337,247.532196 
	C194.393799,247.128143 193.772598,247.048477 193.151382,246.968826 
M184.825180,225.558395 
	C183.391113,229.890015 181.957031,234.221619 180.461121,238.740005 
	C184.455261,238.740005 187.948929,238.740005 191.976669,238.740005 
	C190.056290,233.233643 188.320297,228.255966 186.448303,222.888336 
	C185.848312,223.791718 185.492828,224.326981 184.825180,225.558395 
z"/>
<path fill="#3DAEA7" opacity="1.000000" stroke="none" 
	d="
M104.754974,270.667664 
	C102.365517,271.079315 102.014038,269.809448 101.709747,267.364075 
	C100.890900,260.783722 99.401230,254.285797 98.127983,247.764893 
	C98.021606,247.220078 97.540123,246.748505 96.775574,245.490234 
	C96.400475,247.338821 96.191643,248.367996 95.973434,249.747101 
	C95.078232,246.309982 94.167542,242.528503 93.315216,238.733917 
	C92.735657,236.153717 92.433716,233.490311 91.607849,230.996506 
	C91.273766,229.987732 89.974747,228.937897 88.921936,228.672760 
	C88.356056,228.530273 87.037727,229.868073 86.659531,230.785522 
	C85.722389,233.058823 85.329720,235.561203 84.349892,237.811127 
	C83.132889,240.605698 82.211281,244.191437 79.983154,245.749573 
	C74.842522,249.344391 69.166527,252.348755 63.358330,254.746201 
	C60.027508,256.121063 56.179749,254.835510 54.519459,251.141846 
	C52.967686,247.689606 52.976536,244.043411 56.018456,241.041916 
	C59.186493,237.915985 62.935375,238.531830 66.069321,240.384872 
	C68.541763,241.846786 70.660080,245.501877 73.550613,243.167740 
	C76.257935,240.981537 77.824265,237.297852 79.636154,234.126587 
	C80.421593,232.751877 80.385757,230.932037 81.031898,229.448990 
	C82.801170,225.388062 84.858711,221.478851 90.347565,222.309708 
	C93.989487,222.860962 97.330734,227.673340 98.080811,232.297104 
	C100.138748,244.983200 102.405861,257.635376 104.754974,270.667664 
z"/>
<path fill="#35B4AC" opacity="1.000000" stroke="none" 
	d="
M277.038147,256.822723 
	C273.865143,257.000183 270.692169,257.177643 266.983154,256.926025 
	C263.614929,254.663254 260.782715,252.829590 257.950531,250.995926 
	C257.950531,250.995926 258.013000,250.998489 257.946411,250.636688 
	C257.246490,247.382004 256.170166,244.504822 256.066925,241.593155 
	C255.807358,234.271667 255.945572,226.934219 256.014587,219.604034 
	C256.037201,217.201523 255.468369,214.121231 259.341919,214.178955 
	C262.948730,214.232712 262.875305,217.079056 262.894745,219.613464 
	C262.947174,226.444199 262.694672,233.289124 263.081512,240.098984 
	C263.216003,242.465973 264.870392,244.746613 265.830597,247.066681 
	C265.830597,247.066681 266.007294,247.144958 266.140137,247.522873 
	C269.211151,250.732529 272.330963,252.036407 275.960571,249.052597 
	C275.960571,249.052597 276.001282,248.894348 276.406982,248.883606 
	C277.876404,248.264969 278.940155,247.657089 280.257080,246.846817 
	C280.749542,245.096283 280.988800,243.548126 281.228058,241.999985 
	C281.269104,241.470856 281.310181,240.941742 281.662415,239.809174 
	C281.995056,232.289322 281.814270,225.361694 282.196381,218.465240 
	C282.279968,216.956833 284.371124,215.559647 285.537689,214.111237 
	C286.684601,215.414932 288.859100,216.752914 288.816925,218.016937 
	C288.459442,228.729187 287.697937,239.427948 287.057648,250.130768 
	C287.057648,250.130768 287.049164,250.024872 286.793762,250.181885 
	C283.371613,252.500183 280.204895,254.661453 277.038147,256.822723 
z"/>
<path fill="#39B1A9" opacity="1.000000" stroke="none" 
	d="
M180.102020,270.795471 
	C181.317413,271.212250 182.750824,271.414520 182.980194,272.050812 
	C186.254288,281.133118 189.366837,290.273682 192.501129,299.406097 
	C192.535202,299.505341 192.340851,299.682983 192.262146,299.809509 
	C188.732864,300.362549 185.811829,300.332581 184.762817,295.723022 
	C184.510666,294.614990 181.375427,293.476593 179.624176,293.560791 
	C177.142960,293.680054 173.111084,294.319672 172.559464,295.792267 
	C170.742752,300.642395 167.642654,300.350250 163.391922,299.517700 
	C166.720963,290.437744 169.777496,281.445709 173.475052,272.725464 
	C174.027069,271.423645 177.590057,271.398560 180.102020,270.795471 
M176.380524,282.216248 
	C175.946991,284.260040 175.513458,286.303833 174.910553,289.146149 
	C177.709198,288.738403 180.155930,288.381927 182.529129,288.036163 
	C181.195190,284.585144 179.972336,281.421478 178.599152,277.868958 
	C177.843430,279.291718 177.258423,280.393066 176.380524,282.216248 
z"/>
<path fill="#39B1A9" opacity="1.000000" stroke="none" 
	d="
M213.233994,273.351746 
	C215.686447,272.067322 217.973022,271.093353 220.259613,270.119354 
	C220.575638,270.568542 220.891678,271.017761 221.207703,271.466949 
	C218.387360,279.453979 215.374863,287.380066 212.815384,295.449829 
	C211.156586,300.679871 207.635941,300.525299 203.145248,299.516083 
	C199.658356,290.357117 196.099899,281.010193 192.403030,271.299713 
	C197.216324,270.177216 200.204208,270.714935 201.585800,275.580780 
	C202.907455,280.235504 204.868515,284.708649 207.710571,289.303802 
	C209.496414,284.089935 211.282272,278.876068 213.233994,273.351746 
z"/>
<path fill="#39B1A9" opacity="1.000000" stroke="none" 
	d="
M109.054886,242.745392 
	C108.584518,241.298630 107.749275,239.862106 107.708389,238.403305 
	C107.550285,232.762665 107.663467,227.114838 107.640892,221.469833 
	C107.621460,216.611954 108.180222,212.024841 103.369644,208.148956 
	C99.378464,204.933289 100.407944,199.133041 104.162430,195.907669 
	C107.951164,192.652878 113.959747,192.799820 117.257553,196.227936 
	C120.627243,199.730774 120.499916,205.608810 116.911896,209.158951 
	C115.739388,210.319092 114.412605,211.323318 112.836487,213.083740 
	C112.323265,221.156433 112.327263,228.558105 111.810333,235.923203 
	C111.664749,237.997559 109.991699,239.964706 109.017700,241.514008 
	C109.016167,232.450699 109.016167,223.854416 109.016167,215.258133 
	C109.007904,215.262192 108.999649,215.266235 108.991386,215.270279 
	C108.991386,224.180450 108.991386,233.090607 109.020050,242.185837 
	C109.048721,242.370895 109.054886,242.745392 109.054886,242.745392 
z"/>
<path fill="#31AAA3" opacity="1.000000" stroke="none" 
	d="
M384.686737,224.959641 
	C384.622223,224.531738 384.557739,224.103836 384.816254,223.097580 
	C385.398560,221.575287 385.757446,220.645844 385.897339,219.684525 
	C386.233704,217.372299 385.381775,213.862091 389.137543,214.445297 
	C390.382080,214.638565 391.915131,218.087860 391.956635,220.076874 
	C392.208954,232.164246 392.068542,244.259781 392.059265,256.352600 
	C391.897400,256.473785 391.735535,256.594940 390.935394,256.615631 
	C386.739929,256.081146 385.806335,253.890045 385.895050,250.577805 
	C386.059662,244.433182 386.053162,238.277695 385.880096,232.133453 
	C385.812469,229.732880 385.103577,227.350372 384.686737,224.959641 
z"/>
<path fill="#57BBB7" opacity="1.000000" stroke="none" 
	d="
M265.723938,246.687744 
	C264.870392,244.746613 263.216003,242.465973 263.081512,240.098984 
	C262.694672,233.289124 262.947174,226.444199 262.894745,219.613464 
	C262.875305,217.079056 262.948730,214.232712 259.341919,214.178955 
	C255.468369,214.121231 256.037201,217.201523 256.014587,219.604034 
	C255.945572,226.934219 255.807358,234.271667 256.066925,241.593155 
	C256.170166,244.504822 257.246490,247.382004 257.937439,250.666656 
	C256.872437,247.375290 254.980225,243.733307 254.780777,240.000854 
	C254.304749,231.092545 254.627197,222.141586 254.627197,212.825928 
	C257.709076,212.825928 260.583313,212.825928 264.019897,212.825928 
	C264.019897,222.168640 263.926605,231.251556 264.092560,240.329742 
	C264.129150,242.331390 265.084808,244.316238 265.723938,246.687744 
z"/>
<path fill="#3E9996" opacity="1.000000" stroke="none" 
	d="
M392.415192,256.294250 
	C392.068542,244.259781 392.208954,232.164246 391.956635,220.076874 
	C391.915131,218.087860 390.382080,214.638565 389.137543,214.445297 
	C385.381775,213.862091 386.233704,217.372299 385.897339,219.684525 
	C385.757446,220.645844 385.398560,221.575287 384.909668,222.783096 
	C384.561371,221.234634 384.326843,219.420654 384.352295,217.610352 
	C384.387268,215.122055 383.391022,212.002899 387.826843,212.048996 
	C391.820007,212.090469 394.120850,212.759811 393.915283,217.851990 
	C393.460602,229.114212 393.829132,240.408386 393.754578,251.688797 
	C393.744537,253.206589 393.114227,254.720276 392.415192,256.294250 
z"/>
<path fill="#4AB3AB" opacity="1.000000" stroke="none" 
	d="
M287.396240,249.996460 
	C287.697937,239.427948 288.459442,228.729187 288.816925,218.016937 
	C288.859100,216.752914 286.684601,215.414932 285.537689,214.111237 
	C284.371124,215.559647 282.279968,216.956833 282.196381,218.465240 
	C281.814270,225.361694 281.995056,232.289322 281.792114,239.432175 
	C281.610596,230.903488 281.610596,222.148361 281.610596,212.785034 
	C282.726257,212.680618 284.304291,212.590805 285.865021,212.375488 
	C289.784088,211.834808 291.179565,213.439377 290.955627,217.402420 
	C290.424652,226.798477 290.294464,236.217026 289.780243,245.614334 
	C289.700958,247.063248 288.446075,248.447815 287.396240,249.996460 
z"/>
<path fill="#4AB3AB" opacity="1.000000" stroke="none" 
	d="
M403.169189,253.915970 
	C416.737244,258.297272 433.837769,256.247742 440.414917,239.546844 
	C438.951111,249.904587 432.095856,255.789093 418.837067,256.813446 
	C413.489288,257.226593 408.019287,256.057526 402.602936,255.108612 
	C402.794891,254.381470 402.984283,254.150558 403.169189,253.915970 
z"/>
<path fill="#3E9996" opacity="1.000000" stroke="none" 
	d="
M175.391800,226.083008 
	C174.793320,229.063385 174.371674,232.471436 173.316833,235.670731 
	C171.612701,240.839264 169.333298,245.818848 167.651184,250.993423 
	C167.191925,252.406219 167.998917,254.230621 168.224792,255.866150 
	C170.173096,255.051422 172.525665,254.666855 173.966766,253.312469 
	C175.744690,251.641510 176.764297,249.163727 178.447296,247.025711 
	C178.108917,247.869339 177.176071,248.621735 176.801392,249.590088 
	C173.621597,257.808411 173.652115,257.820221 164.291641,256.556793 
	C167.977615,246.450607 171.630997,236.433792 175.391800,226.083008 
z"/>
<path fill="#57BBB7" opacity="1.000000" stroke="none" 
	d="
M403.141510,253.455505 
	C402.984283,254.150558 402.794891,254.381470 402.455017,254.777023 
	C402.216034,241.720444 402.120880,228.495560 402.031372,215.270615 
	C402.007538,211.748367 404.636108,211.984940 406.893127,212.030609 
	C411.754456,212.128937 416.612274,212.401840 421.776794,212.830704 
	C417.818176,213.362228 413.549316,213.961807 409.291748,213.889984 
	C404.742432,213.813217 403.017181,215.787582 403.055237,220.138947 
	C403.150970,231.090302 403.103760,242.042923 403.141510,253.455505 
z"/>
<path fill="#3E9996" opacity="1.000000" stroke="none" 
	d="
M384.564850,225.416504 
	C385.103577,227.350372 385.812469,229.732880 385.880096,232.133453 
	C386.053162,238.277695 386.059662,244.433182 385.895050,250.577805 
	C385.806335,253.890045 386.739929,256.081146 390.634766,256.655975 
	C389.016052,256.796814 387.059723,256.796814 384.442963,256.796814 
	C384.442963,246.347336 384.442963,236.110352 384.564850,225.416504 
z"/>
<path fill="#4AB3AB" opacity="1.000000" stroke="none" 
	d="
M367.163330,252.366486 
	C369.739563,252.699265 372.369812,253.394257 375.000092,254.089249 
	C374.553589,251.472504 374.317902,248.797409 373.613159,246.252167 
	C372.438477,242.009445 370.963440,237.849884 369.710449,233.368378 
	C372.793427,240.678574 375.780823,248.275711 378.952271,256.340942 
	C375.164520,256.340942 372.391327,256.340942 369.563080,256.340942 
	C368.815460,255.189667 368.016418,253.959198 367.163330,252.366486 
z"/>
<path fill="#4AB3AB" opacity="1.000000" stroke="none" 
	d="
M329.360107,212.913284 
	C323.079102,213.457809 316.499451,213.702576 309.923553,214.023956 
	C306.483398,214.192078 303.049805,214.494766 299.245056,214.943268 
	C299.713226,214.230164 300.540344,212.521851 301.387451,212.511856 
	C310.610840,212.403198 319.837341,212.560471 329.360107,212.913284 
z"/>
<path fill="#3E9996" opacity="1.000000" stroke="none" 
	d="
M197.707245,228.651367 
	C196.072327,225.729340 194.287552,222.587753 193.064819,219.240845 
	C191.971420,216.247971 190.894180,213.889587 187.116974,213.799149 
	C183.472504,213.711914 180.615189,214.371445 179.479507,218.349625 
	C179.273209,219.072266 178.518341,219.638290 177.702042,220.445801 
	C177.746368,219.695908 178.117157,218.781265 178.462372,217.857071 
	C180.261047,213.041534 186.343155,210.137894 190.692581,212.562103 
	C192.248108,213.429108 193.035370,215.936127 193.837387,217.836365 
	C195.291809,221.282318 196.494324,224.834579 197.707245,228.651367 
z"/>
<path fill="#3E9996" opacity="1.000000" stroke="none" 
	d="
M195.232101,248.347641 
	C196.135300,249.458817 196.821655,251.235214 198.091980,252.340378 
	C199.758774,253.790451 202.084564,255.895096 203.773529,255.611740 
	C207.216492,255.034134 204.930847,252.387329 204.477600,250.508621 
	C204.169540,249.231720 203.955063,247.932220 203.776047,246.347595 
	C205.269409,249.406082 206.685486,252.759781 208.171127,256.278229 
	C198.952988,257.930511 198.952988,257.930511 195.232101,248.347641 
z"/>
<path fill="#4AB3AB" opacity="1.000000" stroke="none" 
	d="
M214.711670,213.412201 
	C215.126495,227.604416 215.101624,241.749710 215.103546,256.350952 
	C214.729553,256.390991 213.977280,255.973785 213.978867,255.559464 
	C214.032288,241.494568 214.157318,227.429947 214.711670,213.412201 
z"/>
<path fill="#4AB3AB" opacity="1.000000" stroke="none" 
	d="
M298.870331,220.201111 
	C305.484192,220.173294 312.050507,220.421783 318.616791,220.670273 
	C318.755524,221.176453 318.894226,221.682632 319.032928,222.188828 
	C318.213043,223.051453 317.393158,223.914093 316.288452,224.894012 
	C316.428040,223.976440 316.852417,222.941620 317.467865,221.440903 
	C311.022278,221.107819 304.922516,220.792618 298.870331,220.201111 
z"/>
<path fill="#57BBB7" opacity="1.000000" stroke="none" 
	d="
M109.324493,242.912048 
	C109.054886,242.745392 109.048721,242.370895 109.026917,242.182770 
	C109.005112,241.994644 109.019241,241.981018 109.019241,241.981018 
	C109.991699,239.964706 111.664749,237.997559 111.810333,235.923203 
	C112.327263,228.558105 112.323265,221.156433 112.700066,213.402374 
	C112.933357,221.697357 112.962204,230.358765 113.046494,239.019638 
	C113.070045,241.439651 112.796890,243.468079 109.324493,242.912048 
z"/>
<path fill="#4AB3AB" opacity="1.000000" stroke="none" 
	d="
M441.037201,238.162323 
	C442.138123,231.515533 437.046967,226.462494 435.359314,219.983368 
	C440.896851,224.529953 441.324860,231.078522 441.037201,238.162323 
z"/>
<path fill="#4AB3AB" opacity="1.000000" stroke="none" 
	d="
M107.277084,278.450409 
	C110.783287,283.218597 109.533455,289.770142 104.007782,292.651978 
	C109.070084,289.220459 107.690422,283.913361 107.277084,278.450409 
z"/>
<path fill="#57BBB7" opacity="1.000000" stroke="none" 
	d="
M112.948700,288.542969 
	C109.590813,284.270325 110.647369,279.422211 112.786522,274.277740 
	C113.038857,278.694489 113.023643,283.386749 112.948700,288.542969 
z"/>
<path fill="#3E9996" opacity="1.000000" stroke="none" 
	d="
M203.393372,243.714737 
	C201.410141,239.376801 199.427246,234.685379 197.472916,229.567566 
	C199.465561,233.881195 201.429642,238.621231 203.393372,243.714737 
z"/>
<path fill="#4AB3AB" opacity="1.000000" stroke="none" 
	d="
M277.367126,256.883606 
	C280.204895,254.661453 283.371613,252.500183 286.846741,250.177826 
	C284.002075,252.325974 280.849091,254.635223 277.367126,256.883606 
z"/>
<path fill="#57BBB7" opacity="1.000000" stroke="none" 
	d="
M258.040710,251.325027 
	C260.782715,252.829590 263.614929,254.663254 266.706207,256.697510 
	C264.020508,255.150116 261.075684,253.402115 258.040710,251.325027 
z"/>
<path fill="#57BBB7" opacity="1.000000" stroke="none" 
	d="
M275.537598,249.157410 
	C272.330963,252.036407 269.211151,250.732529 266.100891,247.611160 
	C268.990753,247.968430 272.052704,248.615326 275.537598,249.157410 
z"/>
<path fill="#4AB3AB" opacity="1.000000" stroke="none" 
	d="
M432.070007,216.557617 
	C429.625183,215.838577 426.945435,214.862976 424.129669,213.572327 
	C426.607452,214.271866 429.221313,215.286453 432.070007,216.557617 
z"/>
<path fill="#4AB3AB" opacity="1.000000" stroke="none" 
	d="
M281.097473,242.326660 
	C280.988800,243.548126 280.749542,245.096283 280.049377,246.849823 
	C279.588501,247.055222 279.172882,247.049469 279.172852,247.049469 
	C279.770874,245.584091 280.368866,244.118729 281.097473,242.326660 
z"/>
<path fill="#3E9996" opacity="1.000000" stroke="none" 
	d="
M177.318726,221.003235 
	C176.979416,222.213440 176.525589,223.727524 175.726379,225.355301 
	C175.988754,224.081711 176.596481,222.694412 177.318726,221.003235 
z"/>
<path fill="#57BBB7" opacity="1.000000" stroke="none" 
	d="
M278.958527,247.274780 
	C279.172882,247.049469 279.588501,247.055222 279.796204,247.052216 
	C278.940155,247.657089 277.876404,248.264969 276.486145,248.903671 
	C277.021179,248.456360 277.882690,247.978210 278.958527,247.274780 
z"/>
<path fill="#4AB3AB" opacity="1.000000" stroke="none" 
	d="
M103.507561,292.709961 
	C103.146736,293.600220 102.513184,294.647827 101.610397,295.844025 
	C101.972389,294.950867 102.603615,293.909088 103.507561,292.709961 
z"/>
<path fill="#3DAEA7" opacity="1.000000" stroke="none" 
	d="
M108.640640,270.962585 
	C107.709740,271.105530 106.479744,271.344025 105.109474,271.326416 
	C106.093315,271.066284 107.217430,271.062225 108.640640,270.962585 
z"/>
<path fill="#3DAEA7" opacity="1.000000" stroke="none" 
	d="
M96.082993,254.327850 
	C96.537254,254.843658 96.927650,255.684723 97.185852,256.759949 
	C96.708809,256.213806 96.363968,255.433456 96.082993,254.327850 
z"/>
<path fill="#4AB3AB" opacity="1.000000" stroke="none" 
	d="
M435.286926,219.470581 
	C434.422089,218.942398 433.400421,218.118088 432.238586,216.983551 
	C433.108978,217.507065 434.119568,218.340775 435.286926,219.470581 
z"/>
<path fill="#4AB3AB" opacity="1.000000" stroke="none" 
	d="
M315.737671,225.102936 
	C315.562744,225.594284 315.113861,226.184158 314.410614,226.903687 
	C314.592102,226.422714 315.027924,225.812088 315.737671,225.102936 
z"/>
<path fill="#3E9996" opacity="1.000000" stroke="none" 
	d="
M193.415436,247.023621 
	C193.772598,247.048477 194.393799,247.128143 195.043457,247.435699 
	C194.607773,247.468521 194.143646,247.273483 193.415436,247.023621 
z"/>
<path fill="#3DAEA7" opacity="1.000000" stroke="none" 
	d="
M95.702301,250.966370 
	C95.950653,251.072525 95.955704,251.286392 95.953445,251.821121 
	C95.783752,251.786011 95.621384,251.430038 95.702301,250.966370 
z"/>
<path fill="#3E9996" opacity="1.000000" stroke="none" 
	d="
M181.263672,247.070068 
	C181.215591,246.987411 181.502518,246.933060 181.643524,246.960052 
	C181.784546,246.987061 181.594421,247.168823 181.594421,247.168823 
	C181.594421,247.168823 181.311768,247.152710 181.263672,247.070068 
z"/>
<path fill="#3E9996" opacity="1.000000" stroke="none" 
	d="
M184.266083,247.091187 
	C184.220779,247.006134 184.502960,246.951736 184.641586,246.978653 
	C184.780212,247.005569 184.595184,247.194550 184.595184,247.194550 
	C184.595184,247.194550 184.311401,247.176239 184.266083,247.091187 
z"/>
<path fill="#000000" opacity="1.000000" stroke="none" 
	d="
M236.498779,239.994186 
	C239.893021,245.383087 238.078094,248.972961 231.671677,249.893845 
	C229.085968,250.265533 226.402222,249.955139 223.390076,249.955139 
	C223.390076,246.110794 223.390076,242.401520 223.390076,238.315628 
	C227.595474,238.807770 231.870544,239.308060 236.498779,239.994186 
z"/>
<path fill="#000505" opacity="1.000000" stroke="none" 
	d="
M237.676849,225.023010 
	C235.470474,229.401611 227.310425,232.381302 224.354294,229.587646 
	C222.766525,228.087143 223.075821,224.579224 222.231918,220.562653 
	C227.994400,222.771469 233.923187,218.013428 237.676849,225.023010 
z"/>
<path fill="#000505" opacity="1.000000" stroke="none" 
	d="
M134.005768,236.791870 
	C132.303207,236.349701 130.841782,235.645065 129.380356,234.940430 
	C130.355667,234.072662 131.377945,232.431488 132.297165,232.487320 
	C134.712769,232.634033 135.821350,234.103745 134.005768,236.791870 
z"/>
<path fill="#000505" opacity="1.000000" stroke="none" 
	d="
M353.043457,233.195221 
	C354.287262,229.613556 355.378540,226.417496 356.666260,222.646149 
	C357.295685,223.748337 357.779205,224.373825 358.036438,225.081543 
	C359.655029,229.534286 361.223297,234.005280 362.943848,238.852478 
	C359.172394,238.852478 355.796082,238.852478 351.733398,238.852478 
	C352.162048,236.900314 352.526520,235.240555 353.043457,233.195221 
z"/>
<path fill="#000505" opacity="1.000000" stroke="none" 
	d="
M426.969391,223.159409 
	C432.089722,228.033417 433.032623,233.920898 430.873505,241.085464 
	C429.856873,242.659302 429.140289,243.635834 428.423706,244.612366 
	C428.423706,244.612381 428.579529,245.021133 428.398468,244.897369 
	C427.915344,245.177826 427.613281,245.582047 427.311218,245.986267 
	C426.887146,246.091782 426.463104,246.197296 425.678894,246.606201 
	C425.124634,247.190765 424.930481,247.471939 424.736298,247.753098 
	C424.736298,247.753098 424.296387,247.739670 423.866089,247.727875 
	C422.626251,247.916138 421.816742,248.116196 421.007233,248.316238 
	C420.553314,248.317154 420.099426,248.318054 418.885529,248.326935 
	C415.834717,247.470642 411.505524,250.283890 411.394470,245.746704 
	C411.193207,237.524612 411.867035,229.281082 412.175537,221.046509 
	C412.175537,221.046509 412.608063,221.038315 413.255371,221.051361 
	C416.932770,221.085800 419.962830,221.107193 422.992889,221.128586 
	C422.992889,221.128586 422.958160,221.044678 423.099365,221.302582 
	C423.787964,221.788956 424.335297,222.017410 424.882660,222.245865 
	C424.882660,222.245865 424.866333,222.133774 425.031006,222.365753 
	C425.786926,222.784943 426.378143,222.972168 426.969391,223.159409 
z"/>
<path fill="#4AB3AB" opacity="1.000000" stroke="none" 
	d="
M411.832703,221.230286 
	C411.867035,229.281082 411.193207,237.524612 411.394470,245.746704 
	C411.505524,250.283890 415.834717,247.470642 418.562225,248.437393 
	C413.013092,251.623901 410.103027,250.107681 410.019989,243.763229 
	C409.944244,237.975601 409.892487,232.182922 410.068756,226.399734 
	C410.119843,224.724960 410.993347,223.075256 411.832703,221.230286 
z"/>
<path fill="#4AB3AB" opacity="1.000000" stroke="none" 
	d="
M422.652008,220.924911 
	C419.962830,221.107193 416.932770,221.085800 413.457703,220.974854 
	C416.112152,220.830612 419.211639,220.775925 422.652008,220.924911 
z"/>
<path fill="#4AB3AB" opacity="1.000000" stroke="none" 
	d="
M428.740967,244.510391 
	C429.140289,243.635834 429.856873,242.659302 430.814941,241.514465 
	C430.390350,242.366928 429.724304,243.387665 428.740967,244.510391 
z"/>
<path fill="#4AB3AB" opacity="1.000000" stroke="none" 
	d="
M421.256012,248.420593 
	C421.816742,248.116196 422.626251,247.916138 423.664856,247.816986 
	C423.097565,248.120239 422.301178,248.322601 421.256012,248.420593 
z"/>
<path fill="#4AB3AB" opacity="1.000000" stroke="none" 
	d="
M426.725037,222.972839 
	C426.378143,222.972168 425.786926,222.784943 424.975037,222.374542 
	C425.329834,222.362991 425.905243,222.574631 426.725037,222.972839 
z"/>
<path fill="#4AB3AB" opacity="1.000000" stroke="none" 
	d="
M424.677124,222.033432 
	C424.335297,222.017410 423.787964,221.788956 423.057495,221.320129 
	C423.406799,221.326843 423.939178,221.573914 424.677124,222.033432 
z"/>
<path fill="#4AB3AB" opacity="1.000000" stroke="none" 
	d="
M427.574036,245.777161 
	C427.613281,245.582047 427.915344,245.177826 428.603088,244.820068 
	C428.604797,245.100372 428.220825,245.334229 427.574036,245.777161 
z"/>
<path fill="#4AB3AB" opacity="1.000000" stroke="none" 
	d="
M424.930908,247.604431 
	C424.930481,247.471939 425.124634,247.190765 425.568817,246.834747 
	C425.608734,247.012756 425.377655,247.244705 424.930908,247.604431 
z"/>
<path fill="#000505" opacity="1.000000" stroke="none" 
	d="
M184.981262,225.210312 
	C185.492828,224.326981 185.848312,223.791718 186.448303,222.888336 
	C188.320297,228.255966 190.056290,233.233643 191.976669,238.740005 
	C187.948929,238.740005 184.455261,238.740005 180.461121,238.740005 
	C181.957031,234.221619 183.391113,229.890015 184.981262,225.210312 
z"/>
<path fill="#000505" opacity="1.000000" stroke="none" 
	d="
M176.526978,281.855316 
	C177.258423,280.393066 177.843430,279.291718 178.599152,277.868958 
	C179.972336,281.421478 181.195190,284.585144 182.529129,288.036163 
	C180.155930,288.381927 177.709198,288.738403 174.910553,289.146149 
	C175.513458,286.303833 175.946991,284.260040 176.526978,281.855316 
z"/>
<path fill="#57BBB7" opacity="1.000000" stroke="none" 
	d="
M108.998245,241.997711 
	C108.991386,233.090607 108.991386,224.180450 108.991386,215.270279 
	C108.999649,215.266235 109.007904,215.262192 109.016167,215.258133 
	C109.016167,223.854416 109.016167,232.450699 109.017700,241.514008 
	C109.019241,241.981018 109.005112,241.994644 108.998245,241.997711 
z"/>
</svg>